<svg width="464" height="464" viewBox="0 0 464 464" fill="none" xmlns="http://www.w3.org/2000/svg">
<rect width="464" height="464" fill="#fff"/>
<path d="M65.4878 158.688C68.2611 158.688 70.6718 159.093 72.7198 159.904C74.7678 160.672 76.7731 161.867 78.7358 163.488L74.0638 168.928C71.5038 166.837 68.8158 165.792 65.9998 165.792C62.8424 165.792 60.3251 167.093 58.4478 169.696C56.6131 172.256 55.6958 176.288 55.6958 181.792C55.6958 187.168 56.6131 191.157 58.4478 193.76C60.3251 196.32 62.8638 197.6 66.0638 197.6C67.7278 197.6 69.2424 197.301 70.6078 196.704C71.9731 196.064 73.4024 195.168 74.8958 194.016L79.2478 199.456C77.6691 201.077 75.7064 202.421 73.3598 203.488C71.0558 204.512 68.4958 205.024 65.6798 205.024C61.7118 205.024 58.2344 204.128 55.2478 202.336C52.2611 200.544 49.9358 197.92 48.2718 194.464C46.6078 190.965 45.7758 186.741 45.7758 181.792C45.7758 176.971 46.6291 172.832 48.3358 169.376C50.0424 165.877 52.3891 163.232 55.3758 161.44C58.3624 159.605 61.7331 158.688 65.4878 158.688ZM97.4083 169.056C102.486 169.056 106.454 170.656 109.312 173.856C112.171 177.013 113.6 181.408 113.6 187.04C113.6 190.624 112.939 193.781 111.616 196.512C110.336 199.2 108.459 201.291 105.984 202.784C103.552 204.277 100.672 205.024 97.3443 205.024C92.2669 205.024 88.2776 203.445 85.3763 200.288C82.5176 197.088 81.0883 192.672 81.0883 187.04C81.0883 183.456 81.7283 180.32 83.0083 177.632C84.3309 174.901 86.2083 172.789 88.6403 171.296C91.1149 169.803 94.0376 169.056 97.4083 169.056ZM97.4083 175.84C95.1043 175.84 93.3763 176.757 92.2243 178.592C91.1149 180.384 90.5603 183.2 90.5603 187.04C90.5603 190.88 91.1149 193.717 92.2243 195.552C93.3763 197.344 95.0829 198.24 97.3443 198.24C99.6056 198.24 101.291 197.344 102.4 195.552C103.552 193.717 104.128 190.88 104.128 187.04C104.128 183.2 103.574 180.384 102.464 178.592C101.355 176.757 99.6696 175.84 97.4083 175.84ZM157.183 169.056C159.871 169.056 162.026 169.973 163.647 171.808C165.311 173.643 166.143 176.139 166.143 179.296V204H157.055V180.832C157.055 177.504 155.946 175.84 153.727 175.84C152.533 175.84 151.487 176.224 150.591 176.992C149.695 177.76 148.778 178.955 147.839 180.576V204H138.751V180.832C138.751 177.504 137.642 175.84 135.423 175.84C134.229 175.84 133.183 176.245 132.287 177.056C131.391 177.824 130.495 178.997 129.599 180.576V204H120.511V170.08H128.383L129.087 174.304C130.367 172.597 131.797 171.296 133.375 170.4C134.997 169.504 136.853 169.056 138.943 169.056C140.863 169.056 142.527 169.547 143.935 170.528C145.343 171.467 146.367 172.811 147.007 174.56C148.415 172.725 149.93 171.36 151.551 170.464C153.215 169.525 155.093 169.056 157.183 169.056ZM193.065 169.056C197.332 169.056 200.489 170.635 202.537 173.792C204.628 176.907 205.673 181.301 205.673 186.976C205.673 190.432 205.14 193.525 204.073 196.256C203.007 198.987 201.449 201.141 199.401 202.72C197.396 204.256 195.007 205.024 192.233 205.024C188.777 205.024 185.983 203.808 183.849 201.376V217.056L174.761 218.08V170.08H182.761L183.209 174.048C184.489 172.384 185.983 171.147 187.689 170.336C189.439 169.483 191.231 169.056 193.065 169.056ZM189.545 198.24C193.983 198.24 196.201 194.507 196.201 187.04C196.201 182.944 195.711 180.043 194.729 178.336C193.748 176.629 192.255 175.776 190.249 175.776C188.969 175.776 187.775 176.181 186.665 176.992C185.599 177.76 184.66 178.805 183.849 180.128V194.912C185.3 197.131 187.199 198.24 189.545 198.24ZM238.181 194.592C238.181 195.915 238.373 196.896 238.757 197.536C239.141 198.133 239.781 198.581 240.677 198.88L238.757 204.896C236.752 204.725 235.109 204.256 233.829 203.488C232.592 202.72 231.632 201.525 230.949 199.904C228.731 203.317 225.339 205.024 220.773 205.024C217.403 205.024 214.715 204.064 212.709 202.144C210.747 200.181 209.765 197.643 209.765 194.528C209.765 190.816 211.109 187.979 213.797 186.016C216.485 184.053 220.347 183.072 225.381 183.072H229.285V181.408C229.285 179.317 228.816 177.867 227.877 177.056C226.939 176.245 225.381 175.84 223.205 175.84C220.816 175.84 217.829 176.437 214.245 177.632L212.197 171.552C216.421 169.888 220.603 169.056 224.741 169.056C229.349 169.056 232.741 170.059 234.917 172.064C237.093 174.027 238.181 176.971 238.181 180.896V194.592ZM223.269 198.496C225.829 198.496 227.835 197.237 229.285 194.72V188.256H226.277C221.371 188.256 218.917 190.091 218.917 193.76C218.917 195.253 219.28 196.427 220.005 197.28C220.773 198.091 221.861 198.496 223.269 198.496ZM264.797 169.12C265.821 169.12 266.952 169.291 268.189 169.632L266.653 178.4C265.459 178.101 264.456 177.952 263.645 177.952C261.64 177.952 260.083 178.656 258.973 180.064C257.864 181.472 256.989 183.605 256.349 186.464V204H247.261V170.08H255.133L255.965 176.672C256.776 174.283 257.949 172.427 259.485 171.104C261.064 169.781 262.835 169.12 264.797 169.12ZM296.369 194.592C296.369 195.915 296.561 196.896 296.945 197.536C297.329 198.133 297.969 198.581 298.865 198.88L296.945 204.896C294.939 204.725 293.297 204.256 292.017 203.488C290.779 202.72 289.819 201.525 289.137 199.904C286.918 203.317 283.526 205.024 278.961 205.024C275.59 205.024 272.902 204.064 270.897 202.144C268.934 200.181 267.953 197.643 267.953 194.528C267.953 190.816 269.297 187.979 271.985 186.016C274.673 184.053 278.534 183.072 283.569 183.072H287.473V181.408C287.473 179.317 287.003 177.867 286.065 177.056C285.126 176.245 283.569 175.84 281.393 175.84C279.003 175.84 276.017 176.437 272.433 177.632L270.385 171.552C274.609 169.888 278.79 169.056 282.929 169.056C287.537 169.056 290.929 170.059 293.105 172.064C295.281 174.027 296.369 176.971 296.369 180.896V194.592ZM281.457 198.496C284.017 198.496 286.022 197.237 287.473 194.72V188.256H284.465C279.558 188.256 277.105 190.091 277.105 193.76C277.105 195.253 277.467 196.427 278.193 197.28C278.961 198.091 280.049 198.496 281.457 198.496ZM325.737 202.4C324.499 203.253 323.091 203.893 321.513 204.32C319.977 204.789 318.441 205.024 316.905 205.024C313.406 204.981 310.761 203.979 308.969 202.016C307.177 200.053 306.281 197.173 306.281 193.376V176.48H301.225V170.08H306.281V162.656L315.369 161.568V170.08H323.177L322.281 176.48H315.369V193.184C315.369 194.805 315.646 195.979 316.201 196.704C316.755 197.429 317.609 197.792 318.761 197.792C319.913 197.792 321.193 197.408 322.601 196.64L325.737 202.4ZM357.371 186.272C357.371 186.699 357.307 187.872 357.179 189.792H335.995C336.293 192.864 337.125 195.04 338.491 196.32C339.856 197.6 341.712 198.24 344.059 198.24C345.509 198.24 346.875 198.005 348.155 197.536C349.435 197.067 350.821 196.32 352.315 195.296L356.091 200.416C352.293 203.488 348.005 205.024 343.227 205.024C337.893 205.024 333.797 203.424 330.939 200.224C328.08 197.024 326.651 192.693 326.651 187.232C326.651 183.776 327.248 180.683 328.443 177.952C329.68 175.179 331.451 173.003 333.755 171.424C336.101 169.845 338.875 169.056 342.075 169.056C346.896 169.056 350.651 170.571 353.339 173.6C356.027 176.629 357.371 180.853 357.371 186.272ZM348.347 183.712C348.347 178.08 346.32 175.264 342.267 175.264C340.389 175.264 338.917 175.968 337.851 177.376C336.827 178.741 336.208 180.981 335.995 184.096H348.347V183.712ZM391.725 204H383.853L383.405 199.456C382.21 201.333 380.759 202.741 379.053 203.68C377.346 204.576 375.362 205.024 373.101 205.024C370.029 205.024 367.682 204.107 366.061 202.272C364.439 200.395 363.629 197.792 363.629 194.464V170.08H372.717V193.312C372.717 195.104 373.015 196.384 373.613 197.152C374.21 197.877 375.149 198.24 376.429 198.24C378.861 198.24 380.93 196.768 382.637 193.824V170.08H391.725V204ZM418.235 169.12C419.259 169.12 420.389 169.291 421.627 169.632L420.091 178.4C418.896 178.101 417.893 177.952 417.083 177.952C415.077 177.952 413.52 178.656 412.411 180.064C411.301 181.472 410.427 183.605 409.787 186.464V204H400.699V170.08H408.571L409.403 176.672C410.213 174.283 411.387 172.427 412.923 171.104C414.501 169.781 416.272 169.12 418.235 169.12Z" fill="#B6B6B6"/>
<path d="M198.409 277L195.913 267.08H182.025L179.529 277H169.736L183.369 232.712H194.825L208.393 277H198.409ZM183.817 260.104H194.121L188.937 239.688L183.817 260.104ZM226.821 235.336C225.285 235.336 224.175 235.699 223.493 236.424C222.853 237.149 222.533 238.323 222.533 239.944V243.08H230.597L229.573 249.48H222.533V277H213.445V249.48H208.069V243.08H213.445V239.688C213.445 236.403 214.511 233.736 216.645 231.688C218.821 229.597 221.893 228.552 225.861 228.552C229.018 228.552 232.005 229.235 234.821 230.6L232.325 236.616C230.49 235.763 228.655 235.336 226.821 235.336ZM252.266 242.12C253.29 242.12 254.421 242.291 255.658 242.632L254.122 251.4C252.927 251.101 251.925 250.952 251.114 250.952C249.109 250.952 247.551 251.656 246.442 253.064C245.333 254.472 244.458 256.605 243.818 259.464V277H234.73V243.08H242.602L243.434 249.672C244.245 247.283 245.418 245.427 246.954 244.104C248.533 242.781 250.303 242.12 252.266 242.12ZM269.256 243.08V277H260.168V243.08H269.256ZM264.648 225.608C266.269 225.608 267.592 226.12 268.616 227.144C269.682 228.125 270.216 229.384 270.216 230.92C270.216 232.456 269.682 233.736 268.616 234.76C267.592 235.741 266.269 236.232 264.648 236.232C263.026 236.232 261.704 235.741 260.68 234.76C259.656 233.736 259.144 232.456 259.144 230.92C259.144 229.384 259.656 228.125 260.68 227.144C261.704 226.12 263.026 225.608 264.648 225.608ZM292.374 242.056C294.635 242.056 296.662 242.397 298.454 243.08C300.289 243.72 302.017 244.744 303.638 246.152L299.67 251.528C298.561 250.675 297.473 250.056 296.406 249.672C295.382 249.288 294.251 249.096 293.014 249.096C288.193 249.096 285.782 252.808 285.782 260.232C285.782 263.987 286.401 266.675 287.638 268.296C288.875 269.917 290.646 270.728 292.95 270.728C294.145 270.728 295.233 270.557 296.214 270.216C297.195 269.832 298.347 269.213 299.67 268.36L303.638 274.056C300.395 276.701 296.683 278.024 292.502 278.024C289.174 278.024 286.273 277.299 283.798 275.848C281.366 274.397 279.489 272.349 278.166 269.704C276.843 267.016 276.182 263.88 276.182 260.296C276.182 256.712 276.843 253.555 278.166 250.824C279.489 248.051 281.366 245.896 283.798 244.36C286.273 242.824 289.131 242.056 292.374 242.056ZM334.088 267.592C334.088 268.915 334.28 269.896 334.664 270.536C335.048 271.133 335.688 271.581 336.583 271.88L334.664 277.896C332.658 277.725 331.016 277.256 329.736 276.488C328.498 275.72 327.538 274.525 326.856 272.904C324.637 276.317 321.245 278.024 316.68 278.024C313.309 278.024 310.621 277.064 308.616 275.144C306.653 273.181 305.672 270.643 305.672 267.528C305.672 263.816 307.016 260.979 309.704 259.016C312.392 257.053 316.253 256.072 321.288 256.072H325.192V254.408C325.192 252.317 324.722 250.867 323.784 250.056C322.845 249.245 321.288 248.84 319.112 248.84C316.722 248.84 313.736 249.437 310.152 250.632L308.104 244.552C312.328 242.888 316.509 242.056 320.648 242.056C325.256 242.056 328.648 243.059 330.824 245.064C333 247.027 334.088 249.971 334.088 253.896V267.592ZM319.176 271.496C321.736 271.496 323.741 270.237 325.192 267.72V261.256H322.184C317.277 261.256 314.824 263.091 314.824 266.76C314.824 268.253 315.186 269.427 315.912 270.28C316.68 271.091 317.768 271.496 319.176 271.496Z" fill="#B6B6B6"/>
<circle cx="139.5" cy="256.5" r="21.5" fill="#E0E0E0"/>
</svg>
